<svg xmlns="http://www.w3.org/2000/svg" width="85" height="96" viewBox="0 0 85 96"><g><g><path fill="#dc1414" d="M33.375 83.425a2.34 2.34 0 0 1-.749-.584 2.188 2.188 0 0 1-.416-.75 3.022 3.022 0 0 1-.142-.751h1.365a1.235 1.235 0 0 0 .65.96.927.927 0 0 0 .448.107c.19 0 .353-.036.491-.108.14-.072.256-.161.35-.267.094-.105.164-.22.208-.341.044-.123.066-.24.066-.351h1.348a3.398 3.398 0 0 1-.166.75c-.089.267-.225.518-.408.751a2.155 2.155 0 0 1-.732.584c-.305.156-.69.233-1.157.233-.465 0-.851-.077-1.156-.233zm3.696 3.986a69.23 69.23 0 0 1-1.367 2.168l-.417.65a1510.19 1510.19 0 0 1-1.526 2.369 200.8 200.8 0 0 1-.842 1.292 138.18 138.18 0 0 0-1.117 1.726H30.05v-11.49h1.9v8.171h.084l5.253-8.172h1.784v11.491h-1.9v-8.205zm-10.806.717c0-.412-.067-.767-.2-1.067a2.108 2.108 0 0 0-.536-.743 2.065 2.065 0 0 0-.779-.425 3.15 3.15 0 0 0-.911-.133c-.323 0-.631.044-.92.133-.292.09-.545.23-.762.425a2.163 2.163 0 0 0-.528.743c-.134.3-.2.655-.2 1.067v3.486c0 .422.066.783.2 1.084.133.3.314.544.536.733.223.19.482.328.77.417a3.15 3.15 0 0 0 1.815 0c.298-.089.556-.228.779-.417.222-.189.403-.433.536-.733s.2-.662.2-1.084zm1.901 3.769c0 .6-.11 1.14-.333 1.618a3.423 3.423 0 0 1-.923 1.209 4.17 4.17 0 0 1-1.381.75 5.406 5.406 0 0 1-1.69.259 5.458 5.458 0 0 1-1.707-.259 3.983 3.983 0 0 1-1.365-.75 3.52 3.52 0 0 1-.906-1.21 3.796 3.796 0 0 1-.333-1.617v-4.086c0-.6.114-1.134.342-1.601.228-.467.533-.865.923-1.192a4.08 4.08 0 0 1 1.364-.75 5.32 5.32 0 0 1 1.682-.26c.589 0 1.145.09 1.673.267.528.179.986.431 1.38.76.396.327.705.727.932 1.2.228.472.342 1.009.342 1.61zm-12.749-.97a1.925 1.925 0 0 0-1.292-.464h-2.752v3.435h2.769c.6 0 1.053-.153 1.358-.456.306-.306.46-.722.46-1.253 0-.531-.182-.95-.543-1.262zm-.086-4.724c-.317-.24-.762-.36-1.328-.36h-2.63v2.962h2.713c.5 0 .914-.128 1.237-.385.325-.256.486-.62.486-1.087 0-.514-.158-.89-.478-1.13zm2.397 7.287c-.139.406-.348.767-.626 1.084-.278.317-.623.57-1.035.758-.412.19-.885.284-1.42.284H9.473v-11.49h4.975c.546 0 1.027.083 1.445.25a2.91 2.91 0 0 1 1.035.675c.273.283.478.609.617.976.14.366.21.756.21 1.167 0 .445-.112.887-.335 1.326-.222.44-.584.798-1.085 1.076.556.278.963.664 1.219 1.158.256.495.384.987.384 1.477 0 .433-.07.853-.209 1.259zM5.086 85.843v9.773h-1.9v-9.773H0v-1.718h8.254v1.718z"/></g><g><path fill="#636362" d="M83.203 90.773c-.433-.384-1.003-.576-1.712-.576h-1.96v4.353h1.994c.33 0 .639-.047.922-.142.281-.094.526-.233.732-.417.202-.183.367-.411.489-.684.122-.272.183-.591.183-.958 0-.668-.217-1.193-.648-1.576zm1.6 2.86c-.15.4-.368.747-.649 1.042a2.987 2.987 0 0 1-1.049.692 3.82 3.82 0 0 1-1.425.25h-3.316v-11.49h1.169v4.986h2.206c.531 0 .998.095 1.402.284.407.189.75.436 1.033.742.28.306.496.65.637 1.034.145.383.217.775.217 1.176 0 .455-.075.883-.225 1.284zm-12.36-8.44v4.137c0 1-.064 1.868-.193 2.602-.127.733-.31 1.362-.55 1.884-.239.523-.536.959-.892 1.31-.355.35-.761.641-1.217.875l-.534-1c.367-.223.687-.479.96-.768.271-.289.502-.656.691-1.1.19-.445.33-.993.426-1.643.094-.65.141-1.448.141-2.394v-4.97h5.721v11.491H75.83V85.194zm-10.082 8.32l4.97-9.386h1.15v11.49h-1.166v-9.454h-.067l-4.988 9.454h-1.15v-11.49h1.168v9.386zm-5.187-8.302v10.406h-1.167V85.211h-2.87v-1.084h6.872v1.084zm-4.8-.25l-.55.917a3.217 3.217 0 0 0-1.061-.584 3.891 3.891 0 0 0-1.23-.2 2.92 2.92 0 0 0-.978.167c-.315.11-.6.283-.855.517a2.49 2.49 0 0 0-.612.909c-.152.372-.229.82-.229 1.342v3.67c0 .522.08.97.237 1.342.158.372.362.678.611.917.25.24.533.417.848.534.316.117.631.175.947.175.428 0 .845-.064 1.253-.192a2.99 2.99 0 0 0 1.1-.625l.535.9c-.296.256-.693.484-1.192.684-.5.2-1.054.3-1.665.3-.54 0-1.037-.089-1.49-.267a3.44 3.44 0 0 1-1.97-1.968 4.147 4.147 0 0 1-.283-1.567v-4.153c0-.567.097-1.081.29-1.543.194-.461.458-.859.794-1.192.337-.334.731-.59 1.184-.767a4.004 4.004 0 0 1 1.475-.267c1.12 0 2.067.317 2.841.95z"/></g><g><path fill="#dc1414" d="M71.086 12.87c-18.01 7.902-37.396 7.902-55.407 0l-.999 2.44c17.484 8.63 25.979 27.017 27.242 52.52h2.92c1.265-25.502 9.759-43.89 27.243-52.518z"/></g><g><path fill="#dc1414" d="M43.652 13.959c3.91 0 7.082-3.126 7.082-6.98C50.734 3.125 47.563 0 43.652 0c-3.91 0-7.082 3.125-7.082 6.98 0 3.853 3.171 6.979 7.082 6.979"/></g></g></svg>