<svg xmlns="http://www.w3.org/2000/svg" width="34" height="34" viewBox="0 0 34 34"><g><g><path fill="#27a7e5" d="M17 34c9.389 0 17-7.611 17-17S26.389 0 17 0 0 7.611 0 17s7.611 17 17 17z"/></g><g><path fill="#fff" d="M7.065 16.926c5.227-2.107 8.713-3.495 10.457-4.166 4.98-1.916 6.015-2.249 6.69-2.26.148-.002.48.032.694.193.182.136.231.32.255.45.024.128.054.422.03.652-.27 2.623-1.437 8.987-2.031 11.924-.252 1.243-.75 1.509-1.23 1.55-1.04.088-1.828-.486-2.836-1.098-1.578-.956-2.533-1.398-4.065-2.332-1.77-1.079-.212-1.583.796-2.553.265-.253 4.776-4.31 4.756-4.431-.007-.045-.14-.482-.245-.568-.105-.086-.26-.057-.372-.034-.158.034-2.679 1.575-7.563 4.624-.716.455-1.364.676-1.945.665-.64-.013-1.872-.335-2.787-.61-1.123-.338-1.538-.497-1.46-1.07.04-.299.326-.61.856-.936z"/></g></g></svg>